<svg width="256px" height="256px" xmlns="http://www.w3.org/2000/svg"
    viewBox="-3 -3 36.00 36.00">
    <style>
        .fill-blue-intense {
        fill: #00002b;
    }
    
    @media (prefers-color-scheme: dark) {
        .fill-blue-intense {
            fill: #efefff;
        }
    }
    </style>
        <g id="layer1"
            transform="translate(0,-289.0625)" class="fill-blue-intense">
            <path
                d="m 13,3 c -0.554,0 -1,0.446 -1,1 0,0.554 0.446,1 1,1 h 4 C 17.554,5 18,4.554 18,4 18,3.446 17.554,3 17,3 Z m 2,3 c -4.959902,0 -9,4.0401 -9,9 0,4.9599 4.040098,9 9,9 4.959903,0 9,-4.0401 9,-9 0,-2.372817 -0.931806,-4.528519 -2.439453,-6.1386719 l 1.146484,-1.1464843 c 0.391737,-0.3917372 0.391737,-1.0223254 0,-1.4140626 C 22.511163,6.1049127 22.255619,6.0058594 22,6.0058594 c -0.255619,0 -0.511163,0.099053 -0.707031,0.2949218 l -1.25,1.25 C 18.603068,6.5723575 16.866952,6 15,6 Z m 0,1.8007812 c 3.987111,0 7.199219,3.2121188 7.199219,7.1992188 0,3.98711 -3.212108,7.199219 -7.199219,7.199219 C 11.012889,22.199219 7.8007814,18.98711 7.8007812,15 7.8007812,11.0129 11.012889,7.8007814 15,7.8007812 Z M 15,10 c -0.554,0 -1,0.446 -1,1 v 4 c 0,0.554 0.446,1 1,1 0.554,0 1,-0.446 1,-1 v -4 c 0,-0.554 -0.446,-1 -1,-1 z"
                id="path1224" transform="translate(0,289.0625)"></path>
        </g>
</svg>